<?xml version="1.0" encoding="utf-8"?>
<!-- Generator: Adobe Illustrator 23.0.2, SVG Export Plug-In . SVG Version: 6.00 Build 0)  -->
<svg version="1.1" id="headerSprite" xmlns="http://www.w3.org/2000/svg" xmlns:xlink="http://www.w3.org/1999/xlink" x="0px"
	 y="0px" viewBox="0 0 31.8 157" style="enable-background:new 0 0 31.8 157;" xml:space="preserve">
<style type="text/css">
	.st0{fill:#1C1C1C;}
	.st1{display:none;fill:#1C1C1C;}
</style>
<path id="icLocation" class="st0" d="M30.7,1.3c-0.3-0.3-0.6-0.3-1-0.2l-28.3,13C1.2,14.2,1,14.6,1,14.9c0,0.4,0.2,0.7,0.6,0.8
	l8.7,3c1.4,0.5,2.6,1.6,3,3l3,8.7c0.1,0.3,0.4,0.6,0.8,0.6c0.4,0,0.7-0.2,0.8-0.5l13-28.3C31.1,1.9,31,1.5,30.7,1.3z"/>
<path id="icPhone" class="st1" d="M28.5,74.5c-0.4-0.4-0.7-0.8-1.1-1.1c-0.2-0.2-0.4-0.4-0.6-0.5l-1.6-1.6c-0.7-0.7-1.5-1-2.3-1
	c-0.8,0-1.6,0.4-2.3,1c-0.2,0.2-0.3,0.3-0.5,0.5c-0.4,0.4-0.8,0.8-1.2,1.2c-0.7-0.3-1.4-0.8-2.2-1.4c-1-0.9-1.9-1.7-2.7-2.6
	c-0.4-0.5-1.2-0.5-1.7-0.1c-0.5,0.4-0.5,1.2-0.1,1.7c0.9,1,1.9,2,3,2.9c0,0,0,0,0,0c1.2,0.9,2.1,1.5,3.2,2c0,0,0.1,0,0.1,0
	c0.2,0.1,1,0.3,1.7-0.4c0,0,0,0,0,0c0.4-0.5,0.9-1,1.4-1.5c0.2-0.2,0.3-0.3,0.5-0.5c0.2-0.2,0.4-0.4,0.6-0.4c0.2,0,0.5,0.2,0.6,0.4
	l1.6,1.6c0.2,0.2,0.4,0.4,0.6,0.6c0.4,0.4,0.7,0.7,1,1c0,0,0,0,0,0c0.2,0.2,0.5,0.6,0,1.2l-2,2c-0.4,0.4-0.9,0.7-1.5,0.7
	c-1,0.1-2.1-0.1-3.5-0.6c-2.4-0.9-4.5-2.2-6.9-4.2C10,72.9,7.8,70,6.2,66.7C5.6,65.5,5,64,4.9,62.3c-0.1-0.9,0.2-1.6,0.8-2.2
	c0.4-0.4,0.8-0.8,1.2-1.2c0.2-0.2,0.5-0.5,0.7-0.7l0,0c0.5-0.4,0.9-0.5,1.3,0l3.2,3.2c0,0,0,0,0,0c0.1,0.1,0.3,0.3,0.3,0.6
	c0,0.2-0.2,0.5-0.3,0.6l-2,2c-0.5,0.5-0.5,1.2,0,1.7c0.5,0.5,1.2,0.5,1.7,0l2-2c0.7-0.7,1-1.5,1-2.3c0-0.8-0.4-1.6-1-2.2l-3.2-3.2
	c-1.4-1.4-3.2-1.4-4.6,0c-0.3,0.3-0.5,0.5-0.8,0.8c-0.3,0.4-0.7,0.7-1,1c0,0,0,0,0,0c-1.2,1-1.7,2.4-1.6,4.1
	c0.1,2.1,0.9,3.9,1.6,5.3v0c1.7,3.6,4.2,6.7,7.3,9.3c2.6,2.1,5,3.6,7.6,4.6c1,0.4,2.4,0.8,3.9,0.8c0.2,0,0.4,0,0.6,0h0
	c1.2-0.1,2.1-0.6,3-1.4l2-2c0,0,0,0,0,0C29.8,77.7,29.8,75.8,28.5,74.5z"/>
<path id="icUser" class="st0" d="M23.9,139.8c-0.4-0.5-1.2-0.5-1.7-0.1c-0.5,0.4-0.5,1.2-0.1,1.7c1.4,1.6,2.2,3.6,2.2,5.8v5.1
	c0,0.2-0.2,0.4-0.4,0.4H7.8c-0.2,0-0.4-0.2-0.4-0.4v-5.1c0-4.7,3.8-8.5,8.5-8.5c4.3,0,7.8-3.5,7.8-7.8c0-4.3-3.5-7.8-7.8-7.8
	c-4.3,0-7.8,3.5-7.8,7.8c0,1.3,0.3,2.6,0.9,3.7c0.3,0.6,1,0.8,1.6,0.5c0.6-0.3,0.8-1,0.5-1.6c-0.4-0.8-0.6-1.7-0.6-2.6
	c0-3,2.4-5.4,5.4-5.4c3,0,5.4,2.4,5.4,5.4c0,3-2.4,5.4-5.4,5.4c-6,0-10.9,4.9-10.9,10.9v5.1c0,1.5,1.3,2.8,2.8,2.8H24
	c1.5,0,2.8-1.3,2.8-2.8v-5.1C26.8,144.4,25.8,141.8,23.9,139.8z"/>
<g>
	<g>
		<path class="st0" d="M25,76.3c-0.3-0.4-0.7-0.7-1-1c-0.2-0.2-0.3-0.3-0.5-0.5l-1.5-1.5c-0.6-0.6-1.3-0.9-2.1-0.9
			c-0.8,0-1.5,0.3-2.1,0.9c-0.1,0.1-0.3,0.3-0.5,0.4c-0.3,0.3-0.7,0.7-1,1.1c-0.6-0.3-1.2-0.7-2-1.3c-0.9-0.8-1.8-1.5-2.5-2.4
			c-0.4-0.4-1.1-0.5-1.5-0.1c-0.4,0.4-0.5,1.1-0.1,1.5c0.8,0.9,1.7,1.8,2.7,2.6c0,0,0,0,0,0c1.1,0.8,1.9,1.4,2.9,1.8c0,0,0,0,0.1,0
			c0.2,0.1,0.9,0.3,1.6-0.4c0,0,0,0,0,0c0.4-0.5,0.8-0.9,1.3-1.3c0.2-0.1,0.3-0.3,0.5-0.5c0.1-0.1,0.4-0.3,0.6-0.3
			c0.2,0,0.4,0.2,0.6,0.3l1.5,1.5c0.2,0.2,0.4,0.3,0.5,0.5c0.3,0.3,0.6,0.6,0.9,0.9c0,0,0,0,0,0c0.2,0.2,0.5,0.6,0,1.1l-1.8,1.8
			c-0.4,0.4-0.8,0.6-1.4,0.6c-0.9,0.1-1.9-0.1-3.2-0.6C15,80,13,78.8,10.9,77c-2.6-2.2-4.6-4.8-6.1-7.8c-0.5-1.1-1.1-2.5-1.2-4
			c-0.1-0.8,0.2-1.5,0.7-2c0.4-0.3,0.8-0.7,1.1-1C5.6,62,5.8,61.8,6,61.6l0,0c0.4-0.4,0.8-0.4,1.2,0l2.9,2.9c0,0,0,0,0,0
			c0.1,0.1,0.3,0.3,0.3,0.5c0,0.2-0.2,0.4-0.3,0.6l-1.8,1.8c-0.4,0.4-0.4,1.1,0,1.5c0.4,0.4,1.1,0.4,1.5,0l1.8-1.8
			c0.6-0.6,0.9-1.3,0.9-2.1c0-0.7-0.3-1.4-0.9-2L8.7,60c-1.2-1.2-2.9-1.2-4.2,0c-0.3,0.2-0.5,0.5-0.7,0.7c-0.3,0.3-0.6,0.6-0.9,0.9
			c0,0,0,0,0,0c-1,0.9-1.5,2.2-1.4,3.7c0.1,1.9,0.8,3.6,1.4,4.8v0c1.6,3.3,3.8,6.1,6.6,8.5c2.3,1.9,4.5,3.3,6.9,4.1
			c0.9,0.3,2.1,0.7,3.5,0.7c0.2,0,0.4,0,0.6,0h0c1-0.1,1.9-0.5,2.7-1.3l1.8-1.8c0,0,0,0,0,0C26.2,79.1,26.2,77.5,25,76.3z"/>
		<path d="M24.6,69c-0.4-2.2-1.4-4.1-3-5.7c-1.6-1.6-3.5-2.6-5.7-3c-0.6-0.1-1.1,0.3-1.2,0.9c-0.1,0.6,0.3,1.1,0.9,1.2
			c1.7,0.3,3.3,1.1,4.6,2.4s2.1,2.8,2.4,4.6c0.1,0.5,0.5,0.9,1.1,0.9c0.1,0,0.1,0,0.2,0C24.3,70.1,24.7,69.6,24.6,69z"/>
		<path class="st0" d="M30.4,68.7c-0.6-3.5-2.3-6.8-4.8-9.4c-2.6-2.6-5.8-4.2-9.4-4.8c-0.6-0.1-1.1,0.3-1.2,0.9
			c-0.1,0.6,0.3,1.1,0.9,1.2c3.1,0.5,5.9,2,8.2,4.2s3.7,5.1,4.2,8.2c0.1,0.5,0.5,0.9,1.1,0.9c0.1,0,0.1,0,0.2,0
			C30.1,69.9,30.5,69.3,30.4,68.7z"/>
	</g>
</g>
</svg>
