<svg width="23" height="23" viewBox="0 0 23 23" fill="none" xmlns="http://www.w3.org/2000/svg">
<path d="M22.0709 10.5708H0.929074C0.415977 10.5708 0 10.9867 0 11.4999C0 12.013 0.415977 12.429 0.929074 12.429H22.0709C22.5841 12.429 23 12.013 23 11.4999C23 10.9868 22.5841 10.5708 22.0709 10.5708Z" fill="black"/>
<path d="M22.0709 2.52368H0.929074C0.415977 2.52368 0 2.93966 0 3.45276C0 3.96585 0.415977 4.38183 0.929074 4.38183H22.0709C22.5841 4.38183 23 3.96585 23 3.45276C23 2.93966 22.5841 2.52368 22.0709 2.52368Z" fill="black"/>
<path d="M22.0709 18.6182H0.929074C0.415977 18.6182 0 19.0341 0 19.5472C0 20.0604 0.415977 20.4763 0.929074 20.4763H22.0709C22.5841 20.4763 23 20.0604 23 19.5472C23 19.0341 22.5841 18.6182 22.0709 18.6182Z" fill="black"/>
</svg>
