<svg width="28" height="27" viewBox="0 0 28 27" fill="none" xmlns="http://www.w3.org/2000/svg">
<path d="M26.0482 19.0294C25.6868 18.6416 25.3122 18.2736 24.9442 17.9188C24.7602 17.7413 24.5762 17.5573 24.3922 17.3733L22.7887 15.7698C22.1053 15.0864 21.3035 14.725 20.4821 14.725C19.6541 14.725 18.8589 15.0864 18.1754 15.7698C18.0112 15.9341 17.8403 16.0984 17.676 16.2627C17.2949 16.6373 16.9006 17.025 16.5194 17.4325C15.8425 17.1039 15.1525 16.6504 14.3508 16.0196C13.3059 15.1652 12.4122 14.3109 11.617 13.4041C11.1898 12.9112 10.4407 12.8586 9.94781 13.2923C9.45494 13.7195 9.40236 14.4687 9.83609 14.9615C10.7167 15.9736 11.709 16.9264 12.8656 17.8662C12.8722 17.8662 12.8722 17.8727 12.8787 17.8727C14.0419 18.7928 15.0211 19.3974 16.066 19.8245C16.0923 19.8377 16.1185 19.8442 16.1448 19.8508C16.3945 19.9362 17.1437 20.186 17.8797 19.4565C17.8929 19.4434 17.9126 19.4236 17.9257 19.4105C18.3726 18.9045 18.8457 18.4445 19.3452 17.9516C19.5161 17.7873 19.6869 17.6165 19.8578 17.4456C20.0155 17.2879 20.2586 17.0907 20.4952 17.0907C20.7318 17.0907 20.9684 17.2813 21.1327 17.4456L22.7361 19.0491C22.9267 19.2396 23.1239 19.4302 23.3079 19.6142C23.6759 19.9691 24.0176 20.3108 24.3462 20.6591C24.3527 20.6722 24.3659 20.6788 24.3725 20.6854C24.6222 20.9351 24.8916 21.3294 24.3593 21.8946L22.355 23.8989C21.9278 24.3261 21.4547 24.5495 20.8567 24.6021C19.8381 24.6875 18.7537 24.4903 17.3409 23.9646C14.9882 23.0972 12.7933 21.7763 10.421 19.8048C7.55575 17.4062 5.30169 14.5278 3.71136 11.2486C3.1462 10.0591 2.48247 8.48194 2.37075 6.80618C2.31161 5.87301 2.56133 5.20271 3.16592 4.63755C3.60622 4.26954 3.99394 3.86867 4.36195 3.48752C4.59853 3.2378 4.82196 3.00779 5.05854 2.79093L5.06511 2.78436C5.53169 2.33749 5.91942 2.33092 6.35314 2.76465L9.59294 6.00444C9.59951 6.01101 9.60608 6.01759 9.61266 6.02416C9.75066 6.15559 9.91495 6.35931 9.92152 6.58274C9.92152 6.81932 9.74409 7.04933 9.59951 7.20047L7.5886 9.21138C7.12859 9.67139 7.12859 10.4206 7.5886 10.8871C8.04861 11.3472 8.79778 11.3472 9.26436 10.8871L11.2753 8.87623C11.9521 8.19936 12.3004 7.40419 12.2939 6.56303C12.2873 5.74158 11.9324 4.96613 11.2687 4.32869L8.03547 1.09546C6.68172 -0.258289 4.84168 -0.264861 3.44192 1.07575C3.16592 1.33204 2.9162 1.5949 2.66648 1.85119C2.31818 2.21263 1.9896 2.55435 1.63474 2.85008C1.62159 2.86322 1.60845 2.87636 1.58873 2.88951C0.438705 3.93439 -0.0870228 5.30128 0.0115512 6.95732C0.149555 9.03395 0.918432 10.8871 1.57559 12.2672V12.2737C3.31706 15.8618 5.77484 19.0031 8.89635 21.6186C11.479 23.7609 13.8973 25.2132 16.5063 26.1792C17.4657 26.5341 18.8655 26.981 20.4164 26.981C20.6201 26.981 20.8304 26.9744 21.0407 26.9547H21.0472C22.1973 26.8561 23.1961 26.3895 24.0176 25.5681L26.0285 23.5572C26.0351 23.5506 26.0416 23.544 26.0482 23.5375C27.3428 22.1903 27.3363 20.3371 26.0482 19.0294Z" fill="#1C1C1C"/>
</svg>
