<svg width="22" height="32" viewBox="0 0 22 32" fill="none" xmlns="http://www.w3.org/2000/svg">
<path d="M19.0163 16.7607C18.577 16.282 17.8294 16.2492 17.3508 16.6885C16.8721 17.1279 16.8393 17.8754 17.2786 18.3541C18.7278 19.9344 19.5278 21.9869 19.5278 24.1311V29.2C19.5278 29.4361 19.3311 29.6328 19.095 29.6328H2.89174C2.65568 29.6328 2.45896 29.4361 2.45896 29.2V24.1311C2.45896 19.4229 6.28847 15.6 10.9901 15.6C15.2917 15.6 18.7934 12.0984 18.7934 7.79672C18.7934 3.49508 15.2983 0 10.9967 0C6.69502 0 3.19338 3.50164 3.19338 7.80328C3.19338 9.08852 3.51469 10.3672 4.11797 11.4951C4.42617 12.0721 5.14092 12.282 5.71797 11.9738C6.29502 11.6656 6.50486 10.9508 6.19666 10.3738C5.77699 9.58688 5.55404 8.70164 5.55404 7.80328C5.55404 4.8 7.99338 2.36066 10.9967 2.36066C13.9999 2.36066 16.4393 4.8 16.4393 7.80328C16.4393 10.8066 13.9999 13.2459 10.9967 13.2459C4.99011 13.2459 0.104858 18.1311 0.104858 24.1377V29.2066C0.104858 30.7475 1.35732 32 2.8983 32H19.1016C20.6426 32 21.895 30.7475 21.895 29.2066V24.1377C21.895 21.3967 20.8721 18.7803 19.0163 16.7607Z" fill="#1C1C1C"/>
</svg>
